<?xml version="1.0" standalone="no"?>
<!DOCTYPE svg PUBLIC "-//W3C//DTD SVG 20010904//EN"
 "http://www.w3.org/TR/2001/REC-SVG-20010904/DTD/svg10.dtd">
<svg version="1.0" xmlns="http://www.w3.org/2000/svg"
 width="1278.000000pt" height="1278.000000pt" viewBox="0 0 1278.000000 1278.000000"
 preserveAspectRatio="xMidYMid meet">
<metadata>
Created by potrace 1.11, written by Peter Selinger 2001-2013
</metadata>
<g transform="translate(0.000000,1278.000000) scale(0.100000,-0.100000)"
fill="#000000" stroke="none">
<path d="M7125 12649 c-16 -4 -45 -11 -65 -14 -19 -3 -46 -8 -60 -10 -171 -28
-215 -35 -275 -40 -38 -4 -81 -8 -95 -11 -13 -2 -52 -4 -86 -5 -50 -2 -68 2
-94 21 -31 22 -38 23 -303 24 -294 1 -319 -3 -343 -52 -18 -36 -24 -40 -104
-68 -119 -41 -328 -75 -480 -78 l-45 -1 -5 45 -5 45 -40 -3 c-59 -4 -120 -29
-135 -57 -7 -13 -13 -44 -13 -70 0 -37 -3 -45 -18 -45 -26 0 -30 -1 -59 -12
-44 -17 -111 -12 -133 10 -20 20 -19 20 22 46 22 14 45 26 50 26 21 0 52 54
49 84 -3 28 -6 31 -36 28 -70 -5 -123 -49 -189 -156 -22 -37 -36 -71 -35 -87
2 -25 -4 -30 -51 -47 -54 -21 -113 -38 -157 -46 -73 -13 -206 -72 -283 -124
-38 -27 -68 -36 -104 -33 -15 1 -45 69 -37 82 3 5 11 9 17 8 59 -7 107 23 107
68 0 32 -25 52 -65 53 -23 0 -43 -13 -87 -55 -32 -31 -58 -62 -58 -69 0 -14
-89 -66 -114 -66 -18 0 -22 -15 -6 -25 11 -7 13 -67 4 -101 -4 -14 -19 -25
-47 -34 -23 -6 -69 -29 -103 -49 -33 -21 -82 -46 -108 -56 -54 -21 -71 -11
-61 35 3 14 8 41 11 60 l7 35 -25 -23 c-25 -23 -76 -53 -158 -91 -114 -54
-121 -64 -100 -124 21 -56 12 -91 -22 -95 -18 -2 -34 6 -54 27 -16 17 -34 31
-40 31 -12 0 -124 -57 -170 -86 -78 -50 -277 -195 -367 -268 -155 -126 -233
-179 -333 -229 -111 -56 -143 -82 -172 -141 -20 -40 -26 -45 -43 -36 -10 6
-19 19 -19 29 0 26 -21 40 -46 31 -25 -10 -55 -50 -74 -100 -8 -19 -28 -53
-45 -75 -18 -22 -51 -68 -74 -103 -24 -35 -49 -66 -57 -69 -14 -5 -74 -118
-74 -139 0 -5 -11 -26 -26 -47 -37 -55 -38 -90 -3 -160 30 -59 31 -60 11 -79
-25 -26 -50 -14 -114 54 -36 39 -51 49 -65 43 -10 -5 -21 -9 -25 -9 -62 -8
-254 -321 -390 -636 -9 -19 -23 -51 -31 -70 -9 -19 -32 -75 -52 -125 -100
-245 -195 -401 -350 -573 -36 -41 -64 -105 -64 -150 -2 -65 -41 -229 -96 -397
-62 -189 -107 -363 -99 -377 3 -5 36 -6 74 -2 63 6 68 5 84 -17 9 -13 16 -33
16 -44 0 -28 -37 -67 -58 -61 -42 12 -116 15 -129 5 -14 -12 -18 -68 -5 -70 4
-1 27 -3 52 -5 58 -5 72 -21 78 -87 4 -46 1 -58 -17 -76 -24 -24 -48 -26 -75
-6 -11 8 -28 15 -37 15 -18 0 -38 -43 -33 -73 6 -40 13 -47 53 -47 71 0 102
-70 61 -137 -22 -36 -44 -41 -78 -17 -13 9 -26 13 -30 10 -3 -4 -6 -43 -7 -89
-1 -55 -10 -110 -28 -169 -15 -50 -22 -90 -16 -93 5 -4 29 -3 53 0 42 7 44 6
49 -22 11 -51 0 -257 -17 -338 -10 -44 -26 -98 -37 -120 l-20 -41 25 -44 c29
-50 32 -78 13 -104 -12 -16 -18 -17 -54 -6 -23 7 -57 10 -76 6 -33 -6 -91 -51
-85 -67 2 -4 39 -31 83 -60 44 -30 82 -62 83 -72 2 -11 -8 -31 -23 -47 -20
-21 -39 -29 -78 -33 -58 -5 -86 -31 -106 -97 -25 -83 -4 -143 68 -191 69 -47
75 -60 77 -168 2 -84 -1 -102 -22 -147 -35 -71 -32 -153 8 -238 18 -38 31 -82
33 -116 2 -30 6 -71 9 -90 3 -19 8 -55 12 -80 3 -25 13 -58 21 -74 13 -26 18
-28 51 -21 21 4 53 8 72 9 32 1 35 -2 36 -27 1 -29 -17 -51 -76 -90 -32 -22
-35 -27 -32 -69 1 -25 12 -69 23 -99 11 -30 26 -76 33 -104 7 -27 21 -65 30
-84 10 -19 19 -44 21 -57 1 -12 12 -34 24 -49 11 -15 21 -33 21 -39 0 -22 58
-132 86 -163 27 -28 92 -69 99 -61 4 4 7 39 6 70 0 14 -28 66 -61 115 -65 97
-74 124 -58 180 14 51 49 133 57 133 4 0 8 -12 9 -26 1 -14 10 -42 19 -62 11
-23 17 -55 15 -82 -3 -57 11 -75 79 -97 l54 -18 46 -138 c26 -77 59 -156 76
-181 32 -45 35 -96 7 -96 -8 0 -17 -7 -20 -15 -4 -9 -19 -15 -41 -15 -40 0
-97 -49 -108 -92 -8 -30 39 -130 77 -165 l24 -23 70 48 c80 55 112 60 144 19
12 -15 28 -27 35 -27 9 0 12 -6 9 -15 -4 -8 -1 -21 5 -29 9 -11 5 -16 -20 -25
-18 -6 -39 -11 -48 -11 -9 0 -33 -5 -54 -11 -40 -11 -77 -56 -77 -95 0 -29 94
-212 163 -318 33 -49 125 -178 205 -285 181 -243 276 -388 336 -513 57 -119
63 -147 41 -182 l-17 -25 30 14 c72 37 149 29 217 -20 74 -54 112 -63 149 -34
31 24 33 47 6 91 -18 30 -18 34 -3 50 20 23 48 23 71 1 10 -10 36 -30 58 -46
22 -15 64 -52 92 -82 29 -30 82 -78 117 -106 36 -28 72 -64 80 -79 19 -37 91
-106 125 -122 27 -12 80 -86 80 -113 0 -9 -17 -16 -46 -21 -25 -3 -48 -13 -51
-20 -3 -8 -14 -14 -24 -14 -13 0 -18 -7 -17 -22 0 -13 -1 -27 -2 -33 -7 -23
13 -62 44 -83 59 -40 86 -26 92 49 6 77 14 119 22 118 4 0 34 -10 67 -22 l59
-22 2 -95 c2 -97 12 -139 40 -167 13 -14 23 -14 66 -4 68 15 102 0 106 -49 4
-42 47 -91 106 -120 22 -10 40 -18 41 -17 0 1 8 19 18 39 19 44 14 66 -18 74
-43 11 -41 73 2 74 6 0 15 9 18 21 7 20 7 20 38 -3 18 -13 67 -45 109 -71 70
-43 105 -75 133 -120 7 -12 28 -17 74 -18 49 -2 70 -7 89 -24 21 -18 23 -24
13 -43 -6 -12 -15 -22 -20 -22 -4 0 -20 -11 -34 -24 -30 -28 -27 -63 7 -76 25
-9 51 3 88 42 31 33 48 35 72 9 16 -18 45 -27 113 -37 17 -2 42 -8 55 -13 23
-8 22 -9 -19 -47 -49 -45 -51 -52 -23 -84 l20 -23 40 28 c23 16 43 32 46 37 8
12 68 10 82 -4 17 -17 15 -64 -3 -82 -8 -8 -15 -16 -15 -18 0 -3 26 -5 59 -5
46 0 66 -6 97 -27 l39 -27 30 34 c52 58 60 59 134 17 65 -38 154 -70 191 -70
17 0 11 -46 -7 -62 -10 -9 -31 -23 -48 -31 l-30 -16 30 -1 c17 -1 47 -3 67 -6
32 -3 42 1 71 32 46 49 87 53 218 19 132 -34 116 -30 237 -60 56 -13 112 -27
125 -29 12 -2 33 -7 47 -10 27 -6 63 -13 120 -22 19 -3 45 -7 58 -9 13 -2 53
-7 90 -11 104 -10 142 -27 158 -72 0 -1 21 5 45 13 52 19 153 25 224 13 27 -4
70 -11 95 -14 25 -3 48 -8 52 -11 4 -2 48 -4 98 -5 76 0 90 -3 95 -18 7 -22
-11 -69 -33 -87 -15 -11 -13 -12 12 -3 20 7 46 8 80 1 178 -35 228 -36 295 -5
33 14 68 35 77 45 24 27 40 24 87 -15 77 -62 110 -68 202 -41 27 9 59 18 70
20 80 19 121 25 200 30 155 10 175 18 158 61 -5 13 -14 15 -47 10 -23 -4 -51
-9 -64 -11 -46 -7 -66 56 -25 79 21 12 27 13 107 20 34 3 75 8 91 11 17 3 44
7 60 10 37 6 34 6 225 45 85 17 184 33 220 35 36 2 72 4 81 4 9 1 36 17 60 35
54 43 93 58 238 90 72 16 129 35 153 51 37 24 38 25 55 7 10 -11 26 -34 36
-51 20 -38 42 -37 102 3 27 19 49 25 91 25 53 0 104 20 104 40 0 10 -45 26
-102 36 -43 7 -44 7 -22 45 23 39 62 58 135 69 86 12 108 22 211 92 48 33 125
77 170 99 46 21 118 60 160 87 43 26 139 86 215 133 146 89 248 159 403 275
123 92 228 165 238 165 14 0 19 -82 9 -149 -9 -61 0 -91 28 -91 32 0 58 27 91
95 32 67 35 68 149 50 53 -9 91 -8 105 0 21 13 -9 62 -56 93 -27 19 -51 38
-52 43 -6 15 40 77 66 88 34 16 63 13 107 -9 42 -22 65 -25 65 -11 0 5 15 26
34 45 33 35 34 36 62 21 35 -18 63 -19 69 -2 19 53 4 121 -36 163 -12 13 -46
33 -75 45 -30 13 -54 25 -54 28 1 14 17 29 46 38 26 9 32 8 43 -9 12 -19 12
-19 40 2 38 26 53 25 89 -5 17 -14 33 -25 37 -25 4 0 29 21 55 46 67 65 107
86 163 89 57 3 78 24 74 75 -2 33 -5 36 -56 49 -38 10 -61 12 -80 5 -21 -9
-30 -7 -48 10 -53 50 -46 92 26 159 23 21 41 47 41 59 0 49 135 169 174 155
17 -6 46 12 46 28 0 8 4 15 10 15 5 0 12 11 16 25 4 16 13 25 26 25 33 0 79
34 141 104 32 36 69 69 82 72 47 12 42 66 -15 164 -11 19 -20 42 -20 51 0 21
35 66 63 80 18 10 26 6 66 -39 44 -49 56 -56 93 -53 20 1 36 59 29 111 0 6
-27 27 -58 47 -67 42 -73 49 -73 85 0 18 8 33 24 43 27 18 82 17 98 -2 17 -21
56 -15 73 10 11 17 12 31 6 54 -8 27 -6 34 15 52 29 25 32 26 56 4 26 -24 45
-9 68 52 76 203 103 270 131 317 36 59 46 122 27 154 -7 12 -26 42 -41 67 -35
57 -26 84 32 93 50 8 64 17 66 46 2 28 -10 38 -50 38 -46 0 -75 24 -69 58 9
51 36 147 79 289 25 77 46 152 49 165 12 61 68 296 96 403 17 66 32 127 34
135 2 8 9 33 15 55 6 22 13 58 16 80 4 22 10 56 15 75 8 34 16 105 26 232 3
35 5 138 6 230 1 163 2 168 22 168 62 1 72 13 101 126 21 86 19 179 -5 233
-22 49 -25 77 -10 117 34 90 33 241 -3 379 -20 80 -28 130 -26 185 2 100 3 97
-27 125 -18 17 -39 25 -62 25 -35 0 -35 0 -28 38 15 75 18 150 7 170 -6 12
-25 22 -48 26 -60 10 -64 16 -68 102 -2 43 -7 95 -11 114 -4 19 -7 53 -8 75
l-1 40 54 5 c78 8 102 45 76 118 -3 9 -18 11 -47 8 -164 -19 -153 -19 -166 9
-14 31 -16 72 -2 80 5 3 23 -1 41 -10 43 -23 68 -26 90 -12 22 14 25 54 5 82
-7 11 -16 32 -20 47 -3 15 -17 38 -30 50 -13 13 -36 46 -51 73 -15 28 -31 54
-36 59 -4 5 -28 -3 -55 -19 l-48 -28 -23 27 c-31 36 -29 42 12 56 20 6 49 23
65 37 l30 25 -20 32 c-11 18 -27 63 -35 101 -19 82 -40 135 -54 135 -22 0 -41
-13 -41 -29 0 -9 -11 -32 -24 -50 l-25 -33 -20 32 c-38 64 -38 138 0 210 24
43 24 115 1 156 -9 18 -41 51 -70 74 -57 44 -77 79 -92 162 -10 49 -33 88 -51
88 -5 0 -21 -13 -36 -30 -14 -16 -34 -30 -43 -30 -17 0 -46 34 -74 88 -16 31
-16 34 5 71 29 53 23 74 -26 84 -85 18 -87 19 -143 112 -30 50 -94 142 -142
205 -78 103 -200 276 -200 283 0 1 30 2 68 1 96 -1 130 10 134 44 6 46 -17 77
-79 106 -32 15 -71 40 -88 56 -43 41 -75 46 -109 19 -15 -12 -31 -31 -35 -42
-5 -13 -17 -21 -34 -21 -21 -1 -28 4 -32 25 -4 15 -38 64 -76 108 -82 94 -92
116 -73 153 l14 26 42 -21 c74 -35 123 -25 154 34 13 26 12 29 -17 53 -17 14
-41 29 -55 32 -28 7 -30 22 -9 50 18 23 19 78 3 92 -46 36 -111 25 -173 -30
l-47 -42 -18 24 c-16 21 -19 77 -6 99 2 3 -2 20 -9 38 -9 22 -22 33 -43 38
-47 10 -61 33 -66 114 -4 58 -10 79 -27 98 -13 12 -27 23 -34 23 -6 0 -35 18
-65 41 -60 45 -102 65 -151 72 -63 8 -73 -2 -74 -76 -1 -37 -8 -79 -15 -93
-19 -34 -59 -54 -86 -44 -43 16 -99 120 -87 157 10 28 -23 90 -84 160 -66 76
-93 124 -93 168 0 14 -3 25 -8 25 -4 0 -52 -16 -107 -35 -55 -19 -118 -35
-140 -35 -22 0 -51 -7 -63 -16 -21 -14 -26 -14 -68 2 -24 9 -47 20 -49 25 -4
5 30 111 41 127 1 2 14 5 30 8 16 3 39 16 52 30 13 13 27 24 32 24 5 0 12 10
16 22 5 18 -4 31 -52 75 -32 29 -63 53 -69 54 -5 0 -21 2 -34 5 -32 6 -65 -17
-81 -57 -13 -31 -13 -33 23 -61 20 -17 37 -34 37 -39 0 -20 -55 -91 -79 -103
-41 -19 -71 -10 -71 22 1 15 7 38 15 52 15 27 20 80 7 80 -4 0 -26 17 -49 38
-45 40 -82 109 -78 145 2 15 -3 23 -14 24 -9 1 -69 24 -133 52 -64 28 -129 53
-144 57 -15 4 -56 24 -93 45 -36 22 -76 39 -89 39 -31 0 -89 -28 -105 -50 -16
-23 -55 -34 -72 -20 -7 6 -16 29 -20 50 -8 45 -17 55 -65 66 -19 4 -39 9 -45
10 -5 2 -30 9 -55 15 -25 7 -53 21 -63 32 -13 15 -29 20 -65 20 -26 -1 -67 5
-92 13 -84 25 -243 64 -294 72 -92 13 -217 6 -283 -15 l-63 -21 -32 30 c-65
59 -127 72 -190 39 l-37 -18 -23 36 c-40 62 -125 87 -213 60z m10 -109 c33
-17 63 -34 68 -39 13 -13 -106 -13 -157 0 -57 14 -61 20 -35 47 27 30 54 28
124 -8z m713 -28 c7 -44 -57 -85 -72 -46 -8 21 -8 59 1 68 4 4 21 6 38 4 23
-2 31 -9 33 -26z m190 -109 c3 -29 0 -33 -30 -41 -30 -8 -34 -6 -45 17 -24 51
-18 62 30 59 39 -3 42 -5 45 -35z m141 -62 c12 -8 12 -12 2 -25 -19 -23 -61
-21 -61 2 0 32 28 42 59 23z m-1339 -376 c0 -7 -20 -30 -44 -50 -47 -38 -72
-39 -82 0 -11 44 -1 59 46 70 48 13 80 5 80 -20z m-844 -16 c1 -47 -62 -198
-76 -182 -13 15 -30 76 -30 107 1 33 19 61 60 89 31 21 45 17 46 -14z m-596
-73 c0 -6 -11 -28 -24 -50 -14 -21 -22 -45 -19 -53 7 -18 61 -46 74 -38 5 4
16 -9 24 -29 18 -42 49 -66 79 -60 11 3 36 8 54 11 l33 6 -3 -59 -3 -58 -65
-16 -65 -16 4 -70 c1 -38 7 -77 13 -87 11 -20 74 -51 87 -42 16 9 50 -29 60
-69 6 -22 8 -87 5 -145 -9 -213 -4 -301 20 -351 9 -19 18 -24 41 -23 55 4 68
39 46 128 -14 58 -20 188 -11 224 3 13 16 31 27 38 20 13 23 12 38 -11 16 -23
17 -75 16 -553 0 -455 2 -531 15 -559 19 -40 40 -49 70 -29 22 14 23 19 18 98
-12 182 -12 303 1 334 7 17 31 45 54 63 46 37 44 60 -8 78 -36 13 -59 55 -55
100 1 18 19 64 38 102 20 38 36 78 36 90 0 14 4 19 12 14 22 -14 81 -5 104 17
l23 22 43 -26 c24 -14 56 -39 72 -56 17 -17 33 -31 38 -31 16 0 39 50 44 96
14 122 36 153 117 161 97 10 163 47 195 108 5 11 13 43 17 70 10 77 31 113
114 195 87 86 339 278 382 290 15 5 34 12 40 16 6 4 27 8 45 9 52 3 75 29 68
77 -2 23 0 46 7 54 13 16 53 19 44 4 -3 -6 1 -13 9 -16 11 -4 13 -14 10 -34
-8 -35 3 -41 70 -41 63 0 113 22 170 75 39 38 85 49 119 30 15 -9 13 -14 -14
-47 -35 -42 -33 -62 8 -78 32 -12 75 -6 117 16 32 17 86 23 104 12 5 -4 13
-25 17 -47 5 -31 14 -44 35 -55 57 -29 216 -82 243 -80 15 1 32 -4 38 -12 6
-7 24 -13 40 -13 15 0 39 -5 52 -11 19 -9 31 -7 57 6 40 21 60 13 60 -23 0
-46 20 -64 75 -66 47 -1 51 1 74 37 42 65 84 43 49 -26 -10 -21 -16 -46 -13
-56 6 -21 47 -42 95 -48 19 -3 42 -13 50 -23 18 -22 85 -60 105 -60 14 0 20
27 16 71 -2 22 24 42 48 34 10 -3 22 -18 26 -33 8 -33 63 -92 85 -92 9 0 25 7
36 15 40 30 81 20 169 -45 28 -20 77 -52 110 -70 201 -110 352 -235 469 -388
27 -36 72 -79 101 -98 64 -41 91 -72 99 -120 5 -25 23 -52 59 -87 29 -29 64
-68 78 -87 72 -97 123 -176 141 -218 38 -91 49 -112 56 -112 4 0 15 -12 24
-27 9 -16 32 -44 50 -64 18 -20 43 -49 55 -64 20 -23 28 -26 55 -20 18 4 41
14 50 22 20 18 41 8 80 -36 l28 -30 42 18 c48 20 80 15 97 -18 12 -22 9 -26
-35 -35 -48 -10 -83 -54 -96 -120 -14 -65 -7 -76 48 -76 34 0 50 14 79 73 28
55 40 62 67 44 46 -30 103 -93 178 -197 53 -73 67 -92 142 -210 110 -171 225
-419 216 -466 -4 -23 -42 -32 -93 -23 -27 5 -51 3 -74 -7 -33 -14 -33 -15 -16
-33 9 -11 37 -29 63 -41 47 -22 80 -22 149 3 29 10 35 8 48 -9 32 -40 96 -184
140 -314 43 -126 45 -135 29 -147 -20 -15 -50 -16 -110 -4 -28 5 -49 4 -64 -4
l-23 -12 28 -7 c15 -4 53 -31 84 -60 67 -64 89 -76 135 -76 29 0 37 -5 50 -32
20 -39 21 -87 2 -94 -8 -3 -47 2 -87 10 -107 22 -127 25 -194 32 -33 4 -62 8
-65 9 -9 5 -229 18 -305 18 -85 0 -284 -11 -357 -19 -57 -6 -357 -51 -398 -59
-14 -3 -41 -8 -60 -11 -19 -3 -87 -17 -150 -31 -63 -13 -122 -26 -130 -28
-128 -27 -345 -85 -529 -142 -63 -19 -122 -36 -130 -38 -9 -2 -88 -29 -176
-60 -227 -80 -256 -87 -307 -76 -41 10 -43 9 -75 -29 -25 -29 -54 -47 -115
-70 -45 -18 -100 -40 -123 -50 -22 -11 -139 -49 -260 -85 -222 -67 -398 -126
-446 -151 -24 -12 -79 -27 -145 -40 -36 -7 -157 -44 -189 -59 -129 -57 -178
-76 -207 -81 -18 -4 -55 -17 -82 -30 -28 -13 -63 -24 -79 -24 -16 0 -41 -7
-57 -17 -26 -15 -30 -15 -63 6 -36 22 -65 71 -101 173 -10 25 -31 66 -49 89
-61 81 -112 167 -104 176 3 3 -8 29 -24 58 -16 29 -27 60 -23 68 3 8 35 39 72
68 71 57 384 294 422 319 134 89 458 345 605 477 103 93 285 282 285 297 0 3
-19 -9 -43 -27 -24 -17 -116 -86 -206 -152 -89 -66 -326 -241 -525 -390 -199
-148 -371 -277 -383 -285 -12 -8 -78 -57 -147 -108 l-126 -93 -58 33 c-139 82
-198 90 -364 48 -42 -11 -79 -20 -81 -20 -3 0 -34 30 -68 66 -77 80 -264 264
-299 294 -14 12 -45 40 -70 63 -25 23 -74 67 -110 97 -36 30 -67 57 -70 60
-12 12 -189 157 -360 295 -220 178 -200 162 -324 265 -74 63 -96 77 -91 59 11
-36 56 -96 122 -165 32 -33 75 -79 96 -102 20 -24 86 -81 145 -129 59 -47 123
-100 143 -117 19 -17 49 -42 65 -55 81 -67 204 -176 324 -289 36 -34 75 -69
87 -79 11 -10 91 -85 176 -167 l156 -149 -17 -30 c-9 -16 -25 -32 -34 -35 -10
-2 -18 -11 -18 -18 0 -8 -7 -14 -16 -14 -8 0 -13 -4 -10 -8 3 -5 -8 -19 -24
-30 -34 -26 -50 -75 -47 -147 2 -48 -1 -52 -51 -105 -55 -57 -82 -102 -122
-205 -13 -33 -30 -68 -38 -77 -17 -21 -77 -22 -109 -2 -12 8 -31 14 -41 14
-11 0 -57 18 -103 39 -46 22 -159 64 -250 94 -91 30 -180 62 -197 71 -17 9
-39 16 -49 16 -10 0 -38 11 -63 24 -25 12 -67 28 -95 35 -27 7 -92 30 -143 52
-52 23 -148 58 -212 80 -64 21 -294 109 -511 195 -217 86 -414 164 -439 172
-25 9 -83 31 -129 50 -103 42 -197 72 -321 102 -52 12 -106 29 -119 38 -14 8
-46 16 -72 18 -26 2 -73 14 -105 27 -56 24 -181 61 -234 71 -14 2 -53 9 -88
15 -34 7 -78 14 -96 16 -18 3 -60 11 -92 20 -160 42 -330 58 -619 58 -295 -1
-332 -5 -509 -57 -134 -40 -130 -43 -84 77 22 56 45 120 52 142 59 181 173
440 255 576 28 46 63 116 77 154 41 107 101 181 174 212 32 13 132 19 170 10
134 -32 158 -32 203 4 36 27 34 35 -11 58 -45 23 -96 35 -200 47 -30 3 -63 8
-71 9 -9 2 -22 4 -28 4 -9 1 -8 11 4 39 17 38 133 220 156 244 6 7 29 34 49
59 21 26 48 48 60 51 24 4 82 -22 84 -38 1 -5 4 -21 8 -37 6 -25 4 -27 -18
-23 -34 6 -62 -18 -71 -61 -5 -21 -9 -43 -11 -50 -3 -17 25 -53 50 -62 30 -11
61 6 82 45 15 27 16 37 6 56 -12 22 -13 67 -2 69 52 7 77 30 86 76 8 43 -5 58
-51 55 -29 -2 -35 1 -41 23 -12 49 -1 56 82 53 74 -3 77 -2 101 27 13 17 29
42 34 56 6 14 44 53 85 85 41 32 89 70 106 84 17 13 38 36 47 50 9 15 43 49
76 75 33 27 65 54 70 60 17 19 157 139 200 171 74 56 295 185 408 238 142 67
204 114 358 273 l124 128 38 -9 c86 -22 152 29 114 87 l-16 25 -67 -14 -67
-14 -28 32 -28 33 25 22 c13 12 43 28 65 35 40 12 42 11 68 -20 14 -18 34 -32
44 -32 34 0 74 52 87 113 7 32 18 61 24 66 6 5 40 19 76 31 36 12 155 57 265
100 271 106 473 169 507 158 10 -4 13 -72 13 -315 0 -236 3 -314 13 -325 17
-21 71 -33 126 -29 8 1 24 9 36 19 l21 17 -21 25 c-12 14 -33 50 -47 80 -28
61 -34 148 -19 275 5 39 8 103 8 143 -1 82 -5 79 93 63 28 -5 60 -5 73 0 21 8
23 15 21 64 -3 62 3 71 56 89 41 14 75 11 75 -8z m214 -22 c13 -20 22 -44 19
-55 -6 -23 -2 -22 -46 -4 -47 19 -58 52 -26 76 13 10 25 19 26 19 1 0 13 -16
27 -36z m183 -137 c7 -16 9 -35 5 -43 -13 -22 -45 7 -48 43 -3 40 26 39 43 0z
m4198 -187 c19 -37 6 -70 -29 -70 -35 0 -59 33 -51 69 5 26 11 31 36 31 22 0
32 -7 44 -30z m-4008 4 c33 -13 49 -14 72 -6 27 10 31 9 31 -7 0 -10 -9 -26
-20 -36 -11 -10 -20 -22 -20 -28 0 -5 -11 -18 -24 -28 -24 -19 -26 -26 -13
-65 5 -15 17 -21 45 -22 53 -4 70 -7 79 -16 8 -7 9 -12 11 -54 1 -13 15 -36
30 -52 22 -22 28 -35 24 -58 -4 -31 -18 -39 -83 -47 -26 -4 -27 -2 -22 33 5
34 1 42 -59 102 -88 92 -148 222 -127 278 10 26 20 27 76 6z m-191 -198 c3
-13 4 -36 2 -52 l-3 -29 -22 25 c-22 23 -30 60 -16 73 14 14 33 6 39 -17z
m593 -92 c12 -20 31 -38 42 -41 11 -3 26 -17 33 -32 13 -24 12 -29 -9 -54 -29
-32 -40 -33 -82 -7 -23 14 -33 27 -33 44 0 23 21 126 26 126 1 0 12 -16 23
-36z m4136 -16 c28 -13 31 -28 11 -66 -7 -15 -21 -44 -30 -65 -13 -31 -19 -36
-34 -28 -45 24 -54 110 -16 152 20 22 33 23 69 7z m-6900 -132 c-1 -56 -3 -61
-39 -92 -22 -19 -43 -34 -48 -34 -13 0 -3 141 11 168 10 18 19 22 44 20 l32
-3 0 -59z m2430 21 c11 -6 22 -8 25 -6 3 2 7 -16 10 -41 7 -62 -15 -101 -53
-95 -15 3 -37 0 -49 -6 -17 -9 -24 -7 -40 9 -39 39 -38 145 1 155 23 6 82 -3
106 -16z m4418 -793 c4 -25 -17 -59 -33 -49 -14 8 -18 58 -7 76 14 22 33 9 40
-27z m-7929 -61 c-20 -32 -40 -38 -68 -20 -30 20 -26 41 13 62 23 12 28 12 46
-6 15 -15 17 -23 9 -36z m8055 -130 c25 -30 23 -34 -16 -35 -41 -1 -87 30 -72
48 19 23 65 17 88 -13z m-9121 -66 c39 0 42 -1 36 -21 -17 -60 -69 -94 -90
-59 -5 10 -21 36 -34 57 l-24 39 35 -8 c19 -5 53 -9 77 -8z m10548 -830 c2 -2
1 -18 -2 -35 -9 -42 -29 -42 -63 1 -19 24 2 49 36 42 14 -2 27 -6 29 -8z
m-11209 -426 c-7 -43 -25 -69 -58 -87 -39 -20 -45 -13 -30 33 27 82 99 125 88
54z m-281 -577 c32 -34 33 -36 18 -60 -19 -28 -35 -30 -68 -8 -43 27 -46 104
-4 104 11 0 36 -16 54 -36z m-23 -163 c6 -6 2 -21 -12 -40 -31 -43 -43 -41
-90 11 l-24 28 24 10 c27 11 87 6 102 -9z m530 -318 c13 -21 43 -76 67 -123
24 -47 56 -101 71 -121 16 -20 32 -53 37 -75 8 -33 44 -74 238 -265 300 -297
360 -348 467 -399 78 -38 90 -47 104 -81 20 -50 57 -81 148 -123 90 -42 146
-80 214 -145 52 -50 54 -51 102 -45 41 5 50 3 56 -12 17 -44 83 -107 142 -136
61 -30 161 -30 252 0 36 13 74 24 85 26 42 8 184 18 184 12 0 -3 -32 -40 -70
-83 -62 -69 -128 -176 -137 -222 -26 -134 10 -201 152 -284 38 -22 99 -62 135
-87 69 -50 142 -93 175 -103 11 -3 54 -17 95 -32 66 -23 263 -80 308 -89 68
-13 456 -124 526 -151 95 -36 182 -80 266 -135 l76 -50 100 5 c244 12 301 16
319 19 11 2 43 7 70 11 72 10 202 53 244 80 43 27 89 76 161 170 30 39 66 79
80 90 14 11 34 29 45 41 21 22 64 48 70 42 14 -14 23 -153 23 -375 1 -274 10
-383 42 -486 11 -34 22 -82 25 -107 4 -25 13 -61 20 -82 10 -24 12 -52 7 -85
-4 -26 -7 -55 -6 -63 1 -50 29 -138 80 -260 9 -21 17 -78 19 -135 9 -246 73
-498 217 -848 89 -218 105 -262 113 -316 8 -57 22 -91 43 -108 22 -17 81 -43
98 -43 20 0 119 209 149 315 14 50 33 135 41 190 17 108 37 162 89 240 38 55
53 112 54 197 0 70 17 138 48 201 13 26 21 47 19 47 -3 0 2 16 10 36 8 20 17
72 20 117 3 71 9 91 54 182 58 120 66 152 69 265 2 87 9 175 17 220 2 14 7 41
10 60 3 19 7 46 10 60 2 14 7 61 9 105 7 112 12 157 30 256 23 132 28 178 26
252 l-1 67 38 -19 c24 -12 49 -39 72 -75 95 -152 182 -213 330 -230 30 -4 75
-9 100 -12 25 -3 68 -9 95 -14 28 -6 68 -13 90 -16 22 -3 67 -11 100 -18 83
-16 147 -6 254 43 50 23 132 54 183 68 116 32 117 32 152 22 22 -6 35 -4 57
12 64 45 120 62 249 74 95 9 132 16 230 45 52 16 138 41 190 55 177 49 318
134 524 319 37 33 74 64 81 69 30 16 -36 212 -93 278 -21 24 -48 61 -61 81
-22 37 -48 52 -95 57 -8 0 -13 12 -12 29 1 24 4 27 36 26 19 -1 85 -20 145
-43 166 -64 245 -74 361 -48 39 9 89 35 144 72 136 94 364 246 461 307 58 37
111 78 118 92 7 13 25 30 40 37 298 154 553 403 890 872 62 86 117 157 121
157 30 0 101 -338 116 -548 3 -42 7 -87 9 -100 19 -113 27 -844 11 -1002 -20
-205 -29 -220 -92 -153 -39 42 -50 37 -60 -24 -6 -40 -4 -45 29 -75 20 -18 50
-45 68 -59 l32 -26 -14 -43 c-11 -34 -19 -44 -39 -47 -26 -3 -60 -36 -60 -58
0 -7 16 -32 35 -55 38 -45 41 -60 24 -108 -8 -23 -20 -34 -47 -43 -56 -18 -56
-19 -18 -58 l36 -37 -33 -69 c-34 -71 -37 -89 -19 -121 8 -14 5 -25 -9 -45
-26 -37 -78 -53 -148 -45 -64 7 -91 -5 -117 -56 -23 -44 -20 -89 9 -131 52
-76 48 -126 -20 -268 -40 -84 -49 -98 -75 -103 -30 -6 -58 -52 -58 -96 0 -11
-4 -20 -8 -20 -13 0 -49 -77 -72 -152 -11 -37 -25 -70 -30 -73 -17 -11 -11
-47 14 -79 13 -17 26 -41 30 -53 6 -19 3 -22 -31 -25 -33 -3 -42 -9 -68 -49
-29 -44 -53 -76 -138 -178 -21 -25 -49 -71 -64 -101 -14 -30 -34 -65 -43 -77
-30 -38 -34 -105 -11 -152 27 -51 26 -65 -1 -84 -13 -8 -51 -41 -84 -73 -34
-33 -77 -73 -95 -90 -56 -51 -108 -116 -145 -182 -20 -34 -41 -63 -47 -63 -59
-6 -82 17 -83 84 -3 96 0 90 -34 72 -37 -19 -63 -57 -65 -98 -2 -18 -12 -49
-25 -69 -26 -45 -20 -72 21 -93 16 -9 29 -20 29 -27 0 -7 14 -9 40 -5 l39 5
-15 -36 c-8 -20 -20 -40 -27 -44 -55 -38 -97 -45 -139 -24 -50 26 -85 21 -103
-14 -8 -16 -15 -33 -15 -38 0 -16 70 -44 93 -38 19 4 22 1 22 -27 0 -38 -11
-51 -47 -60 -49 -13 -81 2 -103 47 -40 82 -114 70 -237 -41 -40 -36 -83 -70
-95 -76 -30 -13 -29 -42 3 -88 30 -44 27 -66 -16 -94 -36 -24 -38 -48 -5 -86
37 -44 49 -31 -185 -210 -358 -275 -910 -572 -1386 -744 -99 -36 -300 -104
-324 -110 -3 -1 -50 -15 -105 -32 -119 -37 -247 -73 -284 -79 -14 -3 -35 -8
-46 -11 -11 -3 -29 -7 -40 -9 -11 -1 -40 -7 -65 -13 -65 -14 -141 -26 -245
-37 -33 -3 -67 -8 -75 -9 -8 -2 -44 -6 -80 -10 -36 -4 -72 -8 -80 -10 -8 -2
-44 -6 -80 -10 -36 -4 -78 -9 -95 -11 -214 -27 -542 -22 -695 11 -97 21 -181
24 -258 11 -53 -10 -85 8 -103 59 -7 19 -16 35 -19 35 -3 0 -29 -16 -59 -36
-68 -46 -92 -41 -126 25 -13 27 -28 52 -33 55 -4 2 -28 -11 -51 -30 -24 -19
-47 -34 -50 -35 -3 0 -18 -3 -32 -5 -34 -6 -67 22 -73 60 -8 44 -26 48 -63 15
-40 -34 -47 -35 -105 -9 -25 11 -72 22 -104 25 -101 9 -137 16 -198 41 -75 30
-100 58 -92 103 6 41 22 53 56 46 80 -17 97 -17 104 0 11 29 -2 50 -43 73 -22
13 -41 27 -43 33 -2 7 -23 -2 -49 -20 -42 -30 -72 -41 -129 -46 -66 -5 -252
79 -310 140 -58 62 -130 81 -189 50 -22 -11 -68 -60 -97 -103 -1 -2 -44 23
-96 56 -88 56 -93 62 -93 93 1 19 4 44 8 56 6 16 2 28 -12 42 -25 25 -36 26
-53 5 -46 -55 -46 -56 -128 -39 -8 2 -20 4 -26 4 -8 1 -10 15 -6 44 9 71 5
117 -14 138 -10 11 -47 34 -83 51 -36 17 -70 37 -76 45 -11 15 -84 53 -101 53
-6 0 -28 -14 -49 -30 -21 -17 -42 -30 -48 -30 -24 0 -80 47 -98 82 l-19 37 40
23 c49 28 50 49 8 88 -18 16 -44 40 -57 52 l-24 23 6 -33 c13 -68 -28 -106
-67 -63 -15 17 -16 25 -6 55 11 34 19 40 47 37 19 -3 6 21 -23 42 -25 18 -25
18 -57 -12 -17 -18 -54 -42 -82 -55 -44 -22 -52 -23 -66 -10 -26 24 -68 108
-99 200 -24 70 -26 84 -12 72 46 -40 138 -54 201 -30 l24 8 -29 31 c-49 53
-212 96 -215 58 -1 -8 -2 -21 -3 -27 0 -7 -14 -15 -31 -18 -24 -4 -35 -15 -57
-58 -15 -29 -29 -54 -31 -55 -2 -1 -21 21 -42 48 -40 53 -104 118 -206 206
-91 80 -131 119 -171 169 -40 50 -98 154 -98 176 0 8 -25 25 -54 38 -112 50
-185 158 -226 336 -28 124 -28 125 -81 125 -25 1 -50 4 -57 9 -18 11 -15 55 8
91 22 35 22 64 1 89 -17 20 -35 20 -66 0 -14 -9 -31 -14 -38 -11 -33 12 -229
336 -318 523 -61 128 -149 370 -149 408 0 13 11 32 25 44 14 12 25 30 25 41 0
26 -25 45 -45 34 -9 -5 -29 -7 -46 -5 -26 4 -29 8 -29 41 1 20 5 56 10 81 8
44 7 45 -31 78 -22 19 -48 51 -59 71 -22 44 -72 253 -71 296 1 17 -15 70 -34
118 -38 95 -44 141 -19 151 11 4 14 12 8 24 -4 9 -8 31 -10 47 -1 17 -6 60 -9
97 -7 58 -5 72 14 104 l22 36 -21 18 c-24 21 -58 94 -65 141 -24 167 -24 793
0 999 2 19 7 62 10 95 3 33 8 71 10 85 2 14 7 50 10 80 6 49 17 128 31 215 2
17 11 66 19 110 8 44 17 94 19 110 3 17 15 75 27 130 11 55 22 109 24 120 5
36 9 34 38 -12z m-742 -1790 c29 -17 30 -19 24 -76 -4 -33 -10 -70 -16 -84
l-9 -25 -32 19 c-43 25 -68 62 -72 106 -3 33 -1 38 33 55 20 11 38 20 39 21 2
0 17 -7 33 -16z m31 -679 c6 -22 3 -33 -12 -49 -11 -12 -23 -35 -26 -53 -5
-27 -11 -32 -35 -32 -36 0 -51 27 -44 80 6 50 18 74 47 94 19 13 25 14 42 2
11 -7 24 -26 28 -42z m11554 -458 c-11 -71 -64 -111 -120 -90 -19 7 -21 52 -2
76 13 17 117 69 125 62 2 -2 0 -23 -3 -48z m-1649 -2441 c11 -8 23 -28 25 -45
4 -26 -1 -36 -27 -56 -18 -13 -39 -24 -48 -24 -51 0 -60 34 -27 100 22 43 42
50 77 25z m882 -119 c49 -26 55 -41 26 -64 -15 -12 -32 -19 -40 -16 -11 5 -45
72 -45 89 0 10 32 5 59 -9z m-328 -326 c10 -6 19 -14 19 -18 0 -14 -76 -91
-110 -111 -45 -27 -69 -27 -79 1 -13 35 -2 56 44 82 23 14 45 32 49 41 6 17
48 20 77 5z m-7171 -330 c7 -17 11 -32 9 -33 -2 -1 -19 -8 -37 -14 -30 -11
-34 -9 -49 14 -16 25 -16 26 6 44 34 27 57 24 71 -11z m3405 -1420 c0 -33 -39
-40 -55 -10 -15 27 -4 42 28 38 21 -2 27 -8 27 -28z"/>
<path d="M5476 11236 c-22 -46 -20 -67 7 -107 44 -65 118 -42 117 36 -1 33
-11 50 -54 83 -39 30 -51 28 -70 -12z"/>
<path d="M5236 11111 c-26 -10 -48 -65 -33 -85 17 -22 61 -27 86 -10 32 23 29
77 -4 92 -14 7 -27 12 -28 11 -1 0 -10 -4 -21 -8z"/>
<path d="M6582 10902 c-29 -3 -31 -5 -21 -24 27 -50 2 -120 -62 -178 -25 -23
-59 -82 -59 -104 0 -16 6 -18 57 -14 51 4 60 9 90 43 18 21 41 61 52 88 16 46
22 51 52 55 62 7 72 29 38 86 -27 47 -57 56 -147 48z"/>
<path d="M4935 10837 c-21 -30 -19 -54 5 -67 29 -15 59 -3 71 28 7 19 6 29 -4
39 -23 24 -55 24 -72 0z"/>
<path d="M6052 10694 c-21 -38 12 -73 49 -54 20 11 23 27 13 54 -8 21 -50 21
-62 0z"/>
<path d="M7064 10635 c-20 -30 -13 -51 20 -67 20 -9 30 -8 51 6 29 19 32 46 7
69 -27 24 -59 21 -78 -8z"/>
<path d="M6785 10582 c-38 -28 -62 -125 -44 -179 l10 -33 40 20 c42 22 62 56
74 129 4 28 3 47 -5 56 -13 16 -58 20 -75 7z"/>
<path d="M10626 9772 c-12 -19 -15 -72 -7 -95 9 -23 66 -56 77 -44 3 3 8 24
11 46 5 35 2 44 -25 71 -31 30 -47 37 -56 22z"/>
<path d="M11220 8565 c-18 -22 -15 -73 6 -96 21 -23 57 -25 78 -3 19 18 19 24
6 60 -19 49 -65 69 -90 39z"/>
<path d="M11169 8339 c-16 -17 -29 -35 -29 -39 0 -5 21 -12 46 -16 37 -5 51
-3 72 13 34 25 38 39 14 52 -45 24 -74 21 -103 -10z"/>
<path d="M1007 5388 c-22 -16 -28 -65 -13 -99 12 -29 91 -123 81 -98 -3 8 -7
55 -10 105 -2 49 -4 92 -4 97 -1 11 -36 8 -54 -5z"/>
<path d="M11802 5048 c-26 -26 -7 -62 26 -51 16 6 16 38 -1 52 -10 8 -17 7
-25 -1z"/>
<path d="M1096 4934 c-17 -16 -21 -70 -8 -92 7 -10 15 -8 35 8 29 23 34 55 13
83 -16 21 -20 21 -40 1z"/>
<path d="M9725 2077 c-16 -5 -32 -11 -34 -13 -7 -7 31 -32 92 -63 56 -28 57
-28 57 -7 0 22 -34 85 -47 87 -5 0 -15 2 -23 3 -8 2 -28 -1 -45 -7z"/>
<path d="M5066 1075 c-18 -14 -18 -15 8 -24 18 -8 34 -7 52 1 24 11 25 13 8
25 -23 17 -44 16 -68 -2z"/>
<path d="M5533 12607 c-28 -12 -29 -28 -3 -44 13 -9 27 -10 45 -3 23 9 43 35
34 45 -11 10 -56 11 -76 2z"/>
<path d="M4490 12365 c-8 -2 -31 -6 -51 -10 -40 -6 -69 -27 -88 -62 -9 -18 -9
-23 1 -24 64 -6 82 -4 115 11 32 14 73 62 73 84 0 6 -23 6 -50 1z"/>
<path d="M11576 10097 c-23 -19 -28 -31 -29 -67 -1 -119 3 -126 66 -94 41 21
47 31 47 74 0 35 -28 101 -46 107 -5 2 -22 -7 -38 -20z"/>
<path d="M11701 9883 c-37 -30 -35 -63 8 -112 45 -53 64 -50 104 13 31 49 29
89 -3 106 -29 16 -86 12 -109 -7z"/>
<path d="M192 6773 c-26 -38 -33 -63 -36 -134 -3 -69 8 -82 49 -55 36 24 53
64 49 117 -4 54 -19 99 -33 99 -5 0 -18 -12 -29 -27z"/>
<path d="M108 6457 c-33 -26 -35 -107 -2 -107 26 0 74 30 74 46 0 15 -39 74
-49 74 -3 0 -14 -6 -23 -13z"/>
<path d="M10 6126 c-14 -18 -6 -50 13 -44 15 6 22 37 10 49 -6 6 -15 4 -23 -5z"/>
<path d="M634 3897 c-28 -15 -34 -28 -34 -78 0 -36 5 -51 25 -69 25 -23 26
-23 61 -7 53 26 85 118 50 146 -19 16 -79 21 -102 8z"/>
<path d="M11403 2475 c-18 -8 -33 -18 -33 -23 0 -5 21 -24 48 -41 l47 -31 17
23 c18 22 19 51 5 75 -11 16 -44 15 -84 -3z"/>
<path d="M2130 1845 c0 -3 10 -26 21 -51 21 -43 63 -83 76 -71 12 12 -9 80
-32 103 -21 21 -65 34 -65 19z"/>
<path d="M2320 1666 c0 -19 26 -27 39 -12 13 15 4 26 -21 26 -10 0 -18 -6 -18
-14z"/>
<path d="M2279 1541 c-1 -6 -2 -17 -3 -23 -3 -21 15 -38 40 -38 14 0 25 6 25
15 1 8 2 23 3 33 1 12 -8 18 -31 20 -18 2 -34 -2 -34 -7z"/>
<path d="M10050 1323 c-8 -3 -31 -15 -50 -26 l-34 -21 44 -11 c63 -16 180 -6
180 15 0 25 -104 58 -140 43z"/>
<path d="M9876 1199 c-28 -22 -35 -73 -16 -110 11 -19 54 -26 76 -11 19 13 25
71 9 108 -16 39 -32 42 -69 13z"/>
<path d="M8354 500 c-14 -5 -28 -26 -37 -54 -9 -25 -15 -46 -14 -47 21 -9 65
-6 91 6 31 15 65 59 55 70 -17 16 -77 32 -95 25z"/>
</g>
</svg>
